# xmcd
#
# Track frame offsets:
#  150
#  10826
#  24468
#  33882
#  44876
#  53364
#  63887
#  76052
#  87626
#  99560
#  107707
#  116832
#  127816
#  139846
#  151408
#  162400
#  171242
#  181097
#  192343
#  204226
#  216540
#  227553
#  238472
#  247606
#  257830
#  269010
#  277995
#  288056
#  297937
#  307220
#  319289
#  330949
#  341406
#
# Disc length: 4656 seconds
#
# Revision: 0
# Processed by: cddbd v1.5.2PL0 Copyright (c) Steve Scherf et al.
# Submitted via: AltoMP3_Maker 3.0
#
DISCID=db122e21
DTITLE=Various Artist - Starday Hillbilly, Vol. 2
DYEAR=1900
DGENRE=
TTITLE0=Sonny Burns - Too Hot to Handle
TTITLE1=Smilin' Jerry Jericho - Moanin' in the Mornin'
TTITLE2=R. D. Hendon - You Traveled Too Far
TTITLE3=Arlie Duff - Fifteen Cents a Sop
TTITLE4=George Jones - Hold Everything
TTITLE5=Earney Vandergriff - I Know I'm Falling in Love
TTITLE6=Leon Payne - We're on the Main Line
TTITLE7=Jack Newman - Full of Love
TTITLE8=Blackie Crawford - Stop Boogie Woogie
TTITLE9=Biff Collie - Joy Joy Joy
TTITLE10=Peggy Upton and Danny Buck - What'cha Gonna Do
TTITLE11=Bill Clifton - Take Back Your Heart
TTITLE12=Jim Eanes - Don't Stop Now
TTITLE13=Sonny Burns - Powder and Paint
TTITLE14=Margie Singleton - My Picture of You
TTITLE15=Bill Mack - Cheatin' on Your Mind
TTITLE16=Orville Couch - Five Cent Candy
TTITLE17=Darnell Miller - Cardboard Sweetheart
TTITLE18=Chuck Mayfield - Hog Sloppin' Time
TTITLE19=Hoot and Curley - You Get What You Pay for
TTITLE20=Link Davis - Bayou Buffalo
TTITLE21=May Hawks - Talk a Little Louder
TTITLE22=Ray Lunsford - Carroll County Blues
TTITLE23=Melvin Price - The Pace That Kills
TTITLE24=Neal Merritt - The Funniest Feeling
TTITLE25=Jack Derrick - Rainbow of Love
TTITLE26=Frank Evans - Barrel of Heartaches
TTITLE27=James O'Gwynn - Losing Game
TTITLE28=Chuck mayfield - Washing on the Line
TTITLE29=Hoot and Curley - Hurry Hurry
TTITLE30=Bill Nettles - Gumbo Mumbo
TTITLE31=Luke Gordon - Baby's Gone
TTITLE32=Johnny Tooley - Looking Glass Heart
EXTD=
EXTT0=
EXTT1=
EXTT2=
EXTT3=
EXTT4=
EXTT5=
EXTT6=
EXTT7=
EXTT8=
EXTT9=
EXTT10=
EXTT11=
EXTT12=
EXTT13=
EXTT14=
EXTT15=
EXTT16=
EXTT17=
EXTT18=
EXTT19=
EXTT20=
EXTT21=
EXTT22=
EXTT23=
EXTT24=
EXTT25=
EXTT26=
EXTT27=
EXTT28=
EXTT29=
EXTT30=
EXTT31=
EXTT32=
PLAYORDER=
